<?xml version="1.0" encoding="UTF-8"?>
<svg id="Indicators" xmlns="http://www.w3.org/2000/svg" viewBox="0 0 512 512">
  <defs>
    <style>
      .cls-2 {
        fill: #08141c;
        stroke: #08141c;
        stroke-width: 4px;
      }
    </style>
  </defs>

  <g>
    <path class="cls-2" d="M301.05,471.73c-29.1,0-58.35-.09-86.63-.18-28.29-.09-57.55-.18-86.64-.18-21.81,0-41.32.05-59.63.16-20.51-3.51-28.56-19.21-27.39-33.2,1.15-13.72,11.73-28.49,32.24-28.49.85,0,1.72.03,2.61.08l1.71.1.2-1.7c1.13-9.58,7.3-19.89,15.71-26.27,1.16-.88,3.01-1.8,4.8-2.69,2.37-1.18,4.6-2.29,5.74-3.54,1.48-1.61,2.98-4.25,4.56-7.04,1.63-2.87,3.31-5.83,5.06-7.88,6.65-7.77,15.64-13.69,28.3-18.64l1.09-.43.81-15.29-.61-.58c-46.21-43.97-62.93-109.37-43.64-170.66,9.01-28.63,25.27-54.09,47.02-73.64,23.21-20.87,52.34-34.46,84.24-39.31,9.08-1.38,18.18-2.08,27.05-2.08,34.11,0,66.46,10.36,93.56,29.96,25.41,18.38,45.2,43.9,57.23,73.81,25.73,63.96,10.74,133.43-39.12,181.3l-.59.56.64,16.49,1.25.37c17,5.03,31.71,18.45,38.36,35.03.51,1.26,1.18,3.78,1.82,6.22,1.47,5.54,2.26,8.25,3.23,9.42.64.77,1.71,1.38,2.95,2.09.95.54,2.02,1.15,2.62,1.71.76.72,2.1,2.31,3.39,3.86,2.41,2.87,3.45,4.07,4.21,4.52,2.14,1.24,4.3,1.75,6.59,2.28,3.14.74,6.39,1.5,9.86,4.39,2.93,2.44,4.52,6,5.69,8.6.74,1.65,1.32,2.95,2.12,3.75.61.6,1.5.82,3.14,1.18.86.19,2.03.45,2.53.71,9.75,5.06,15.14,13.76,14.4,23.27-.71,9.26-7.35,17.14-17.32,20.59-44.62.94-91.87,1.36-153.16,1.36ZM71.77,420.74c-.79,0-1.47.03-2.07.09-12.73,1.28-18.46,11.29-18.4,20.05.06,9.04,6.05,18.67,19.29,19.82,7.19.62,15.09.93,24.18.93,10.3,0,20.86-.39,31.08-.76,10.22-.37,20.78-.76,31.02-.76,7.33,0,13.8.19,19.8.6,8.7-.13,14.04-6.5,15.5-12.75,1.76-7.56-1.41-14.65-8.07-18.06-2.12-1.08-4.4-1.37-6.41-1.62-2.32-.29-4.31-.54-5.49-1.85-1.05-1.17-1.3-2.97-1.58-5.06-.5-3.69-1.13-8.27-6.4-11.99-3.66-2.59-6.87-2.81-9.58-2.81h-1.75c-1.56.01-2.77-.09-3.94-.57-.97-.4-3.05-4.04-4.17-5.99-1.31-2.29-2.56-4.46-3.8-5.79-5.57-6-14.1-9.58-22.81-9.58-1.3,0-2.6.08-3.87.23-11.29,1.38-21.35,9.52-25.04,20.24-.92,2.67-1.11,5.11-1.29,7.47-.12,1.57-.24,3.05-.57,4.48-.55,2.36-2.18,3.93-8.32,3.93-1.25,0-2.54-.06-3.79-.12-1.25-.06-2.4-.11-3.5-.11ZM368.67,460.15c9.25,0,18.85.36,28.13.7,9.37.35,18.95.7,28.2.7,8.2,0,15.34-.28,21.84-.85,5.81-.51,10.71-3.48,12.8-7.75,1.76-3.6,1.33-7.75-1.2-11.68-2.89-4.49-6.86-5.16-10.05-5.69-2.19-.37-4.07-.69-5.53-2.03-1.5-1.37-1.78-2.91-2.14-4.86-.47-2.54-1.05-5.7-4.76-8.44-3.78-2.79-7.1-2.8-10.04-2.81-1.66,0-3.09-.01-4.33-.56-.99-.44-2.3-2.57-3.36-4.27-.8-1.29-1.55-2.51-2.36-3.43-6.04-6.84-13.12-10.17-21.64-10.17-1.51,0-3.08.11-4.67.32-8.95,1.21-17.76,7.55-20.95,15.08-.77,1.81-1.13,4.07-1.48,6.25-.56,3.5-1.13,7.12-3.19,7.97-1.27.53-3.76.53-4.58.53-.98,0-2-.03-3.02-.06-1.19-.04-2.26-.07-3.28-.07-1.38,0-2.44.06-3.36.18-11.17,1.53-16.01,9.2-15.85,16.12.16,6.92,5.35,14.36,16.57,15.36h.19c5.54-.37,11.41-.55,18.04-.55ZM282.2,460.67h45.22l-.89-2.44c-.39-1.08-.85-2.13-1.24-3.05-.9-2.09-1.75-4.07-2.05-6.31-1.04-7.7,1.03-14.76,5.97-20.42,5.74-6.56,14.89-10.48,24.49-10.48.28,0,.57,0,.85.01l1.42.03.37-1.37c4.65-17.09,20.09-28.56,38.42-28.56,1.09,0,2.2.04,3.29.12l.82.06.59-.57c1.06-1.03.71-2.61.23-4.02-1.27-3.73-9.21-18.36-14.29-18.94l-.83-.1-102.35,96.03ZM203.96,437.22l-.04.73c-.35,7.07-.89,13.47-3.93,20.15l-1.17,2.57h67.39l109.82-103.35-61.77-27.94-.29,2.46c-2.91,24.65-7.77,50.75-23.45,74.67-9.53,14.54-20.3,27.99-34.51,27.99-3.49,0-7.11-.84-10.78-2.49-4.54-2.05-7.3-5.13-10.23-8.39-2.13-2.37-4.33-4.82-7.28-6.94l-1.22-.88-22.55,21.41ZM137.81,355.59c-7.58,3.86-13.18,9.31-18.1,14.63l-2.38,2.57,3.47.46c11.83,1.58,21.27,6.57,29.72,15.71.59.64,1.75,2.53,2.45,3.66,1.05,1.71,1.26,2.06,1.76,2.36,1.74,1.05,3.78,1.49,6.13,1.99,3.55.77,7.56,1.63,11.46,4.92,3.53,2.98,5.38,7.45,6.72,10.72.87,2.11,1.55,3.76,2.52,4.73.73.73,2.05,1.27,4.73,2.33,3.57,1.41,9.54,3.77,10.48,6.29l.97,2.59,23.35-22.55-.82-1.26c-14.9-22.79-19.31-49.59-22.28-72.92l-.31-2.4-59.88,26.17ZM254.31,239.52c-2.3,0-4.61.14-6.88.41-23.63,2.83-44.61,27.13-44.02,50.98.41,16.45,5.67,45.21,8.49,60.65,4.62,25.29,14.13,46.09,28.28,61.83,6.27,6.98,11.46,10.23,16.33,10.23,6.93,0,12.41-6.37,19.4-15.38,12.51-16.12,19.97-33.59,24.18-56.66l.15-.82c2.88-15.75,8.86-48.47,8.34-62.73-1.11-30.37-28.46-48.51-54.26-48.51ZM217.53,94.35c-9.85,0-20.44,2.05-26.98,5.22-26.71,12.95-27.56,41.81-28.31,67.27-.13,4.33-.25,8.42-.48,12.46-.64,10.92-1.18,21.86-1.7,32.44-.33,6.71-.66,13.42-1.02,20.1l-5.55,104.82,42.81-17.98-.12-1.32c-.35-3.77-1.03-7.75-1.69-11.59-1.08-6.24-2.18-12.65-1.93-18.51.1-2.37,1.35-7.1,2.46-11.27,1.43-5.37,2.16-8.25,1.93-9.7-.16-.98-1.04-2.61-3.17-6.38-1.31-2.32-2.64-4.68-3.15-5.95-7.32-18.33-7.07-65.94-5.32-86.17,1.5-17.4,13.42-26.22,35.43-26.22,2.12,0,4.35.08,6.64.24,6.56.45,9.53,2.06,13.3,4.1,1.88,1.01,4,2.16,6.76,3.25,2.91,1.15,5.63,1.71,8.33,1.71,5.29,0,9.38-2.12,13.71-4.37,3.6-1.87,7.33-3.8,11.9-4.42,3.51-.48,6.97-.72,10.29-.72,12.11,0,32.76,3.32,34.97,25.59,1.88,18.97,1.72,66.34-4.19,83.71-.62,1.82-2.49,5.43-4.14,8.61-2.25,4.34-3.12,6.07-3.27,7.03-.23,1.45.5,4.33,1.93,9.7,1.11,4.19,2.36,8.89,2.46,11.26.25,5.85-.86,12.26-1.93,18.46-.67,3.88-1.35,7.86-1.7,11.63l-.12,1.32,42.65,17.91.02-2.71c0-1.03-.29-1.91-.55-2.69-.18-.54-.35-1.04-.36-1.46-2.79-66.33-5.68-121.3-9.09-173.01-.18-2.7-.3-5.3-.42-7.81-.8-17.05-1.44-30.52-17.9-43.77-8.17-6.58-22.6-11-35.89-11-11.58,0-20.95,3.32-26.37,9.36-1.41,1.57-2.6,3.57-3.75,5.5-2.32,3.89-4.51,7.56-8.04,7.56-.67,0-1.41-.13-2.19-.38-1.37-.44-3.96-4.28-5.85-7.07-2.32-3.44-4.71-6.98-7.21-8.91-4.88-3.76-13.12-5.84-23.18-5.84ZM256.43,51.2c-8.67,0-17.51.73-26.28,2.17-49.88,8.19-91.01,39.3-112.85,85.36-21.87,46.13-19.77,100,5.64,144.11,3.27,5.68,7.2,10.93,11,16.01,2.2,2.94,4.4,5.89,6.45,8.86l2.62,3.81,2.46-16.8c1.64-23.29,2.45-46.96,3.23-69.85v-.12c.91-26.47,1.84-53.84,4.05-80.47,1.63-19.68,8.25-34.97,19.69-45.46,11.17-10.25,26.39-15.45,45.22-15.45,3.39,0,6.93.18,10.53.52,9.59.93,19.56,6.55,26.01,14.68l.4.51.64.14c.21.05.43.07.65.07,1.99,0,3.17-1.78,4.12-3.2.33-.49.69-1.04.93-1.26,8.07-7.46,20.2-11.57,34.14-11.57,16.54,0,33.38,5.79,43.96,15.12,19.51,17.2,20.02,37.58,20.6,61.18.12,4.75.24,9.63.53,14.55.46,7.98.94,15.97,1.42,23.95,1.89,31.59,3.85,64.25,4.92,96.47v.14s2.47,16.79,2.47,16.79l2.62-3.71c1.74-2.46,3.62-5.01,5.27-7.26,4.54-6.17,9.24-12.55,13.11-19.46,27.13-48.49,26.71-105.77-1.13-153.23-28.12-47.95-77.62-76.58-132.41-76.58ZM255.99,228.64c20.16,0,38.78,9.05,51.09,24.82l1.96,2.52,1.16-2.98c6.93-17.8,6.25-37.46,5.59-56.47-.33-9.56-.67-19.42,0-28.77l.02-.21-.04-.21c-1.72-10.17-9.12-15.12-22.62-15.12-3.32,0-6.61.29-8.8.51-5.08.51-9.06,2.54-12.9,4.5-4.48,2.29-9.11,4.65-15.74,4.65-1.13,0-2.31-.07-3.5-.2-4.52-.51-8.47-2.53-12.28-4.49-3.84-1.97-7.81-4.01-12.3-4.46-2.2-.22-5.51-.51-8.81-.51-13.49,0-20.88,4.94-22.61,15.12l-.04.22.02.22c.66,9.35.32,19.21,0,28.75-.66,19.03-1.33,38.69,5.59,56.49l1.16,2.98,1.96-2.52c12.31-15.77,30.93-24.82,51.09-24.82Z"/>
    <path class="cls-2" d="M60.26,218.41c-8.04,0-14.35-.25-16.08-.64-2.8-.62-3.79-3.24-3.79-5.28s.99-4.65,3.79-5.28c1.45-.32,8.25-.56,16.18-.56s14.71.23,16.15.56c2.73.61,3.88,3.17,3.81,5.44-.07,2.11-1.28,4.75-4.46,5.24-1.95.3-8.36.52-15.61.52Z"/>
    <path class="cls-2" d="M451.54,218.41c-8.04,0-14.35-.25-16.08-.64-2.8-.62-3.79-3.24-3.79-5.28s.99-4.65,3.79-5.28c1.45-.32,8.25-.56,16.18-.56s14.71.23,16.15.56c2.73.61,3.88,3.17,3.81,5.44-.07,2.11-1.28,4.75-4.46,5.24-1.95.3-8.36.52-15.61.52Z"/>
    <path class="cls-2" d="M99.86,116.48c-.44,0-.89-.04-1.34-.13-3.34-.66-8.8-4.31-14.08-7.84-4.9-3.28-9.52-6.37-13.21-7.71-1.51-1.23-2.2-3.38-1.75-5.52.44-2.1,1.82-3.6,3.69-4.01.63-.14,1.14-.2,1.62-.2.8,0,1.55.18,2.77.65,3.85,1.49,20.56,11.2,24.17,14.03,2.84,2.23,4.05,4.99,3.22,7.37-.71,2.04-2.71,3.37-5.1,3.37Z"/>
    <path class="cls-2" d="M412.64,116.31c-1.83,0-3.74-.82-4.98-2.14-.65-.7-1.41-1.85-1.31-3.38.25-3.85,12.58-10.32,19.94-14.18,4.06-2.13,7.56-3.97,9.57-5.43.45-.1.89-.15,1.32-.15,2.26,0,4.27,1.41,5.13,3.58.86,2.17.33,4.45-1.42,6.09-1.43,1.34-25.04,14.91-26.87,15.44-.43.11-.9.17-1.39.17Z"/>
    <path class="cls-2" d="M86.58,333.68c-1.83,0-3.74-.82-4.98-2.14-.65-.7-1.41-1.85-1.31-3.38.25-3.85,12.57-10.32,19.93-14.18,4.06-2.13,7.56-3.96,9.58-5.44.45-.1.89-.15,1.32-.15,2.26,0,4.27,1.4,5.13,3.58.86,2.18.33,4.45-1.42,6.09-1.43,1.34-25.03,14.91-26.87,15.45-.43.11-.9.17-1.39.17Z"/>
    <path class="cls-2" d="M425.92,333.86c-.44,0-.89-.04-1.34-.13-3.34-.66-8.8-4.31-14.08-7.85-4.89-3.27-9.51-6.36-13.2-7.71-1.51-1.23-2.19-3.38-1.75-5.52.44-2.1,1.82-3.6,3.69-4.01.62-.14,1.14-.2,1.62-.2.8,0,1.55.18,2.77.65,3.85,1.49,20.56,11.2,24.17,14.03,2.84,2.23,4.05,4.99,3.22,7.37-.71,2.04-2.71,3.37-5.1,3.37Z"/>
    <path class="cls-2" d="M258.15,275.14c-10.09,0-23.34-2.85-28-8.12-1.31-1.48-1.73-3.75-1.07-5.77.57-1.75,1.85-2.97,3.5-3.33.61-.13,1.18-.2,1.69-.2,1.64,0,2.67.7,4.09,1.67,1.02.7,2.16,1.47,3.65,2.06,4.71,1.87,9.45,2.82,14.09,2.82,3.71,0,7.44-.6,11.11-1.79,1.54-.5,3.07-1.34,4.69-2.23,2.32-1.27,4.71-2.58,6.69-2.58,1.39,0,2.47.65,3.51,2.1,1.31,1.82,1.57,3.42.84,5.05-2.48,5.48-15.35,9.59-21.26,10.17-1.05.1-2.24.15-3.54.15Z"/>
    <path class="cls-2" d="M235.17,195.88c-1.02,0-2.19-.52-3.42-1.07-1.35-.6-2.73-1.22-4.25-1.32-.14,0-.28-.01-.42-.01-1.78,0-3.24.73-4.52,1.38-1.05.53-2.03,1.02-3.01,1.02-.86,0-1.78-.37-2.83-1.13-2-1.45-2.77-3.07-2.37-4.94.67-3.08,4.36-6.23,8.23-7.02.88-.18,1.89-.27,2.99-.27,5.16,0,11.88,2.13,13.73,5.57.82,1.53.58,3.3-.73,5.27-1.67,2.53-2.94,2.53-3.41,2.53Z"/>
    <path class="cls-2" d="M293.14,195.88c-1.02,0-2.19-.52-3.42-1.07-1.35-.6-2.73-1.22-4.25-1.32-.14,0-.28-.01-.42-.01-1.78,0-3.24.73-4.52,1.38-1.05.53-2.03,1.02-3.01,1.02-.86,0-1.78-.37-2.83-1.13-2-1.45-2.77-3.07-2.37-4.94.67-3.08,4.36-6.23,8.23-7.02.88-.18,1.89-.27,2.99-.27,5.16,0,11.88,2.13,13.73,5.57.82,1.53.57,3.3-.73,5.27-1.67,2.53-2.94,2.53-3.41,2.53Z"/>
  </g>
</svg>
